PathFileType	4	(X/Y/Z)	S1_rest_slow_left.trc
DataRate	CameraRate	NumFrames	NumMarkers	Units	OrigDataRate	OrigDataStartFrame	OrigNumFrames
250.00	250.00	13	18	mm	250.00	27138	36183
Frame#	Time	c7	r_should	l_should	clavicle	r_upa	r_elb_l	r_elb_m	r_low	r_wri_l	r_wri_m	r_met	l_upa	l_elb_l	l_elb_m	l_low	l_wri_l	l_wri_m	l_met
	X1	Y1	Z1	X2	Y2	Z2	X3	Y3	Z3	X4	Y4	Z4	X5	Y5	Z5	X6	Y6	Z6	X7	Y7	Z7	X8	Y8	Z8	X9	Y9	Z9	X10	Y10	Z10	X11	Y11	Z11	X12	Y12	Z12	X13	Y13	Z13	X14	Y14	Z14	X15	Y15	Z15	X16	Y16	Z16	X17	Y17	Z17	X18	Y18	Z18
27138	108.54800	990.99689	1422.00061	160.27382	1050.53796	1360.63452	328.17685	1018.61499	1368.46497	-8.12528	1121.72961	1300.95923	152.69164	1054.28174	1154.20422	401.87598	1045.67236	1072.68689	428.49188	982.45990	1039.09241	367.54141	1091.36279	949.07391	432.03842	1132.55188	835.05768	433.72394	1058.15613	817.13159	417.98477	1129.72729	758.27557	463.86880	1009.40979	1153.30042	-57.04327	1014.74573	1066.37549	-72.00894	1015.59338	1051.88696	20.13303	1109.29712	1003.34094	-76.96716	1213.12720	970.17334	-76.90494	1215.17590	955.36035	5.14520	1260.03833	897.79877	-67.89630
27139	108.55200	991.00055	1422.00598	160.25314	1050.51660	1360.62427	328.15576	1018.47363	1368.64026	-8.25668	1121.73438	1300.95752	152.70067	1054.24121	1154.19727	401.86005	1045.62622	1072.70508	428.48447	982.41858	1039.09998	367.53705	1091.31433	949.07703	432.05960	1133.00098	834.84778	434.12814	1058.09766	817.13232	418.01309	1129.66028	758.27240	463.90515	1009.45642	1153.27832	-57.06610	1014.79449	1066.33191	-72.06690	1015.62689	1051.82495	20.09911	1109.27881	1003.12427	-76.99714	1213.08643	969.76154	-76.90462	1215.07031	954.89966	5.12750	1259.91235	897.30499	-67.91258
27140	108.55600	991.00549	1422.01489	160.23430	1050.49573	1360.62378	328.13834	1018.69916	1368.37073	-8.14367	1121.73584	1300.95996	152.70398	1054.20471	1154.19861	401.84927	1045.58154	1072.72095	428.49570	982.38184	1039.10779	367.54010	1091.26074	949.08643	432.08762	1133.07629	834.79749	434.26523	1058.03394	817.13916	418.04178	1129.59521	758.27649	463.94272	1009.50195	1153.25916	-57.08533	1014.85168	1066.26416	-72.10360	1015.67590	1051.75708	20.06580	1109.12109	1003.13080	-77.22716	1213.03564	969.36914	-76.91743	1214.95886	954.40503	5.10310	1259.79358	896.83081	-67.93232
27141	108.56000	991.00781	1422.02209	160.21274	1050.47717	1360.63306	328.13333	1018.29327	1368.87708	-8.45083	1121.73145	1300.96082	152.70920	1054.16528	1154.20642	401.85153	1045.54492	1072.71643	428.50684	982.34662	1039.12085	367.54407	1091.20581	949.09338	432.11487	1133.04407	834.78619	434.32767	1057.97229	817.15308	418.07852	1129.53015	758.28766	463.98767	1009.54578	1153.24402	-57.10794	1014.90674	1066.19250	-72.12984	1015.70227	1051.69568	20.02930	1108.93481	1003.19312	-77.49433	1212.96167	969.00635	-76.95332	1214.85657	953.93408	5.04080	1259.65942	896.36304	-67.94886
27142	108.56400	991.01367	1422.02905	160.19116	1050.46301	1360.64783	328.13348	1018.20496	1368.98816	-8.54574	1121.72668	1300.95349	152.71294	1054.12524	1154.21912	401.84872	1045.50366	1072.71643	428.50287	982.31354	1039.12805	367.55008	1091.15027	949.09601	432.13232	1132.99292	834.78546	434.36417	1057.91663	817.16846	418.11887	1129.46558	758.30347	464.03525	1009.58704	1153.22632	-57.13066	1014.96912	1066.12683	-72.16853	1015.71820	1051.63342	19.99824	1109.18750	1002.58398	-77.17755	1212.89917	968.60992	-76.97861	1214.78394	953.55017	5.03666	1259.51367	895.89008	-67.94576
27143	108.56800	991.02008	1422.03589	160.16475	1050.44373	1360.66052	328.12247	1018.19684	1368.99561	-8.58300	1121.71960	1300.94727	152.71426	1054.08838	1154.23035	401.84277	1045.46533	1072.72705	428.51157	982.27966	1039.14185	367.55273	1091.09802	949.09290	432.13739	1132.93982	834.78632	434.40067	1057.86340	817.18506	418.15121	1129.40466	758.32477	464.08588	1009.62592	1153.20569	-57.16385	1015.03131	1066.06494	-72.20004	1015.73419	1051.57727	19.97855	1109.24670	1002.26208	-77.12262	1212.86389	968.16754	-76.97157	1214.68933	953.15369	5.03120	1259.36560	895.40033	-67.93831
27144	108.57200	991.02661	1422.03833	160.13455	1050.42480	1360.66821	328.10483	1018.20801	1368.97839	-8.61413	1121.71289	1300.93530	152.70689	1054.05640	1154.24609	401.84167	1045.41516	1072.74573	428.52573	982.24701	1039.15283	367.55399	1091.04675	949.10034	432.15295	1132.89136	834.79120	434.43542	1057.81165	817.19525	418.17593	1129.34375	758.33887	464.12369	1009.66217	1153.18481	-57.19622	1015.08557	1066.00659	-72.23005	1015.76093	1051.52075	19.95649	1109.24927	1002.01276	-77.14410	1212.79504	967.74902	-76.99063	1214.57275	952.75677	5.01118	1259.23413	894.90186	-67.94551
27145	108.57600	991.02893	1422.03491	160.10011	1050.40405	1360.67651	328.08835	1018.22748	1368.95496	-8.64505	1121.70288	1300.91992	152.69936	1054.02368	1154.26013	401.84119	1045.37244	1072.75366	428.53632	982.21588	1039.16150	367.55182	1090.98938	949.10858	432.17203	1132.83557	834.79065	434.45224	1057.76233	817.20074	418.20486	1129.28467	758.35016	464.15482	1009.69244	1153.15723	-57.22594	1015.13934	1065.94482	-72.26801	1015.79272	1051.46045	19.92549	1109.23364	1001.77527	-77.17535	1212.70850	967.33966	-77.03355	1214.46802	952.35297	4.97338	1259.09143	894.40149	-67.97298
27146	108.58000	991.02972	1422.02905	160.06255	1050.38477	1360.67688	328.07440	1018.23987	1368.92627	-8.67065	1121.69275	1300.90442	152.69536	1053.98816	1154.26599	401.84180	1045.33423	1072.76001	428.53333	982.17346	1039.16833	367.54822	1090.93542	949.10449	432.17783	1132.55237	834.89154	434.31009	1057.70593	817.20410	418.23114	1129.22668	758.35675	464.18637	1009.71698	1153.12549	-57.25409	1015.18835	1065.87488	-72.31136	1015.81561	1051.39697	19.89619	1109.20984	1001.54211	-77.19911	1212.62598	966.92218	-77.06271	1214.37878	951.90784	4.91510	1258.93921	893.90955	-68.00756
27147	108.58400	991.02924	1422.02686	160.02908	1050.35840	1360.67786	328.06223	1018.24878	1368.89612	-8.69468	1121.68274	1300.89783	152.68326	1053.95837	1154.27112	401.84402	1045.29016	1072.77197	428.53702	982.12671	1039.17310	367.54089	1090.88684	949.10980	432.18909	1132.22192	835.02026	434.13611	1057.64404	817.20880	418.24081	1129.16748	758.35834	464.21490	1009.74109	1153.09497	-57.28336	1015.22516	1065.80798	-72.35941	1015.84436	1051.32886	19.86346	1109.18005	1001.31085	-77.22030	1212.56006	966.47369	-77.04976	1214.29407	951.43140	4.87811	1258.78967	893.43378	-68.03497
27148	108.58800	991.02777	1422.02808	159.99471	1050.33130	1360.67505	328.04211	1018.26117	1368.87073	-8.72077	1121.67944	1300.88806	152.67830	1053.92944	1154.28259	401.84778	1045.24634	1072.79163	428.53586	982.07996	1039.17651	367.53500	1090.84363	949.11804	432.21463	1132.55090	834.86652	434.43164	1057.58789	817.21899	418.25513	1129.10718	758.35767	464.23590	1009.77161	1153.06299	-57.30202	1015.26978	1065.74048	-72.39841	1015.84766	1051.26477	19.82799	1109.15454	1001.08527	-77.23576	1212.48962	966.04657	-77.05702	1214.22925	950.96271	4.88261	1258.63416	892.93127	-68.04661
27149	108.59200	991.02661	1422.03760	159.97223	1050.31213	1360.67004	328.02707	1018.27979	1368.85046	-8.74480	1121.67493	1300.88013	152.68098	1053.90247	1154.27771	401.84421	1045.20813	1072.80273	428.52979	982.03406	1039.18909	367.53030	1090.80664	949.12830	432.22699	1132.59729	834.83856	434.51825	1057.53430	817.23383	418.27792	1129.05139	758.36554	464.26144	1009.80450	1153.03882	-57.32037	1015.32318	1065.67761	-72.43310	1015.87286	1051.19678	19.79424	1109.13965	1000.87164	-77.23680	1212.42480	965.64008	-77.07594	1214.13879	950.55334	4.86712	1258.46619	892.41394	-68.05943
27150	108.59600	991.02661	1422.05090	159.96170	1050.29529	1360.67419	328.01562	1018.30005	1368.83618	-8.76656	1121.66992	1300.87927	152.68253	1053.87769	1154.28320	401.84952	1045.17078	1072.80823	428.52835	981.98926	1039.20837	367.52570	1090.76648	949.13818	432.23657	1132.57214	834.83954	434.56238	1057.48145	817.24255	418.29050	1128.99976	758.37598	464.28519	1009.84857	1153.01941	-57.33429	1015.39099	1065.61780	-72.48315	1015.90076	1051.13098	19.76969	1109.11963	1000.66949	-77.23907	1212.35083	965.26154	-77.11131	1214.03931	950.16742	4.85660	1258.30042	891.91034	-68.08125
